<?xml version="1.0" encoding="UTF-8" standalone="no"?>
<!-- Created with Inkscape (http://www.inkscape.org/) -->

<svg
   xmlns:dc="http://purl.org/dc/elements/1.1/"
   xmlns:cc="http://creativecommons.org/ns#"
   xmlns:rdf="http://www.w3.org/1999/02/22-rdf-syntax-ns#"
   xmlns:svg="http://www.w3.org/2000/svg"
   xmlns="http://www.w3.org/2000/svg"
   xmlns:sodipodi="http://sodipodi.sourceforge.net/DTD/sodipodi-0.dtd"
   xmlns:inkscape="http://www.inkscape.org/namespaces/inkscape"
   id="svg2"
   version="1.1"
   inkscape:version="0.91 r13725"
   xml:space="preserve"
   width="1200"
   height="675"
   viewBox="0 0 1200 675"
   sodipodi:docname="facebook-corrected.svg"
   inkscape:export-filename="/home/tramm/Dokumendid/post-truth/mehmet/Hackathon2.ai-fb3.png"
   inkscape:export-xdpi="90"
   inkscape:export-ydpi="90"><metadata
     id="metadata8"><rdf:RDF><cc:Work
         rdf:about=""><dc:format>image/svg+xml</dc:format><dc:type
           rdf:resource="http://purl.org/dc/dcmitype/StillImage" /><dc:title></dc:title></cc:Work></rdf:RDF></metadata><defs
     id="defs6"><clipPath
       clipPathUnits="userSpaceOnUse"
       id="clipPath22"><path
         d="M 0,465 828,465 828,0 0,0 0,465 Z"
         id="path24"
         inkscape:connector-curvature="0" /></clipPath></defs><sodipodi:namedview
     pagecolor="#ffffff"
     bordercolor="#666666"
     borderopacity="1"
     objecttolerance="10"
     gridtolerance="10"
     guidetolerance="10"
     inkscape:pageopacity="0"
     inkscape:pageshadow="2"
     inkscape:window-width="1920"
     inkscape:window-height="1059"
     id="namedview4"
     showgrid="true"
     fit-margin-top="0"
     fit-margin-left="0"
     fit-margin-right="0"
     fit-margin-bottom="0"
     inkscape:zoom="0.37487923"
     inkscape:cx="600"
     inkscape:cy="337.5"
     inkscape:window-x="1280"
     inkscape:window-y="0"
     inkscape:window-maximized="1"
     inkscape:current-layer="g10"><inkscape:grid
       type="xygrid"
       id="grid4276"
       empspacing="120" /></sodipodi:namedview><g
     id="g10"
     inkscape:groupmode="layer"
     inkscape:label="Hackathon2"
     transform="matrix(1.25,0,0,-1.25,82.5,628.125)"><path
       d="m -66,-37.5 960,0 0,540 -960,0 0,-540 z"
       style="fill:#87d6c9;fill-opacity:1;fill-rule:nonzero;stroke:none"
       id="path12"
       inkscape:connector-curvature="0" /><text
       transform="scale(0.99919454,-1.0008061)"
       style="font-variant:normal;font-weight:normal;font-stretch:normal;font-size:51.88341522px;font-family:'Leitura Headline Sans';-inkscape-font-specification:LeituraHeadline-Sans;writing-mode:lr-tb;fill:#ff6600;fill-opacity:1;fill-rule:nonzero;stroke:none"
       id="text14"
       x="205.03957"
       y="-414.06412"><tspan
         x="205.03957 239.49016 270.3089 300.60883 333.13971 351.14325 384.03735 415.53058 433.53412 467.98471 499.5817 542.64508 574.24207 607.65503 641.22357"
         y="-414.06412"
         sodipodi:role="line"
         id="tspan16">DATA AS REMEDY </tspan></text>
<g
       id="g18"
       transform="matrix(1.1594203,0,0,1.1612903,-66,-51.9)"><g
         id="g20"
         clip-path="url(#clipPath22)"><g
           id="g26"
           transform="translate(474.8896,132.9512)"><path
             d="m 0,0 c 0,-3.523 -28.566,-6.387 -63.807,-6.387 -35.237,0 -63.802,2.864 -63.802,6.387 0,3.52 28.565,6.384 63.802,6.384 C -28.566,6.384 0,3.52 0,0"
             style="fill:#33cccc;fill-opacity:1;fill-rule:nonzero;stroke:none"
             id="path28"
             inkscape:connector-curvature="0" /></g><g
           id="g30"
           transform="translate(455.3047,134.6738)"><path
             d="m 0,0 -88.439,0 c -1.997,0 -3.616,1.625 -3.616,3.618 0,1.999 1.619,3.62 3.616,3.62 l 15.761,0 c 1.716,0 3.196,1.208 3.544,2.892 0.348,1.681 -0.542,3.37 -2.117,4.051 -25.284,10.842 -41.617,35.618 -41.617,63.11 0,30.271 19.407,56.622 48.296,65.575 1.511,0.474 2.546,1.87 2.546,3.46 l 0,66.165 6.047,0 0,-53.967 c 0,-1.996 1.617,-3.617 3.62,-3.617 1.993,0 3.615,1.621 3.615,3.617 l 0,53.967 8.468,0 0,-29.846 c 0,-1.999 1.618,-3.618 3.618,-3.618 1.998,0 3.615,1.619 3.615,3.618 l 0,33.463 c 0,1.997 -1.617,3.618 -3.615,3.618 -0.161,0 -0.314,-0.027 -0.467,-0.047 -0.154,0.02 -0.303,0.047 -0.463,0.047 l -2.412,0 -23.23,0 -2.414,0 -1.804,0 -1.389,0 c -2.157,0 -3.919,1.757 -3.919,3.919 0,2.162 1.762,3.919 3.919,3.919 l 49.23,0 c 2.16,0 3.919,-1.757 3.919,-3.919 0,-2.162 -1.759,-3.919 -3.919,-3.919 l -3.192,0 c -2.002,0 -3.619,-1.621 -3.619,-3.618 l 0,-69.782 c 0,-1.59 1.033,-2.986 2.545,-3.46 28.892,-8.953 48.302,-35.304 48.302,-65.575 0,-27.492 -16.338,-52.268 -41.621,-63.11 -1.579,-0.681 -2.466,-2.37 -2.117,-4.051 0.343,-1.684 1.829,-2.892 3.545,-2.892 L 0,7.238 c 1.99,0 3.613,-1.621 3.613,-3.62 C 3.613,1.625 1.99,0 0,0"
             style="fill:#ffffcc;fill-opacity:1;fill-rule:nonzero;stroke:none"
             id="path32"
             inkscape:connector-curvature="0" /></g><g
           id="g34"
           transform="translate(411.083,154.9531)"><path
             d="m 0,0 c 31.565,0 57.151,25.584 57.151,57.15 l -114.303,0 C -57.152,25.584 -31.562,0 0,0"
             style="fill:#ff6600;fill-opacity:1;fill-rule:nonzero;stroke:none"
             id="path36"
             inkscape:connector-curvature="0" /></g><g
           id="g38"
           transform="translate(455.0508,215.6016)"><path
             d="m 0,0 c 3.508,-3.503 3.502,-9.197 0,-12.7 -3.513,-3.508 -9.198,-3.508 -12.707,0 -3.505,3.503 -3.505,9.197 0,12.7 C -9.198,3.512 -3.512,3.512 0,0"
             style="fill:#ffcc33;fill-opacity:1;fill-rule:nonzero;stroke:none"
             id="path40"
             inkscape:connector-curvature="0" /></g><g
           id="g42"
           transform="translate(455.0508,215.6016)"><path
             d="m 0,0 c 3.508,-3.503 3.502,-9.197 0,-12.7 -3.513,-3.508 -9.198,-3.508 -12.707,0 -3.505,3.503 -3.505,9.197 0,12.7 C -9.198,3.512 -3.512,3.512 0,0 Z"
             style="fill:none;stroke:#ff6600;stroke-width:4.82399988;stroke-linecap:round;stroke-linejoin:round;stroke-miterlimit:10;stroke-dasharray:none;stroke-opacity:1"
             id="path44"
             inkscape:connector-curvature="0" /></g><g
           id="g46"
           transform="translate(452.2744,241.8174)"><path
             d="m 0,0 c 1.974,-1.977 1.974,-5.178 0,-7.15 -1.976,-1.978 -5.177,-1.978 -7.153,0 -1.977,1.972 -1.977,5.173 0,7.15 1.97,1.974 5.173,1.979 7.153,0"
             style="fill:#ffcc33;fill-opacity:1;fill-rule:nonzero;stroke:none"
             id="path48"
             inkscape:connector-curvature="0" /></g><g
           id="g50"
           transform="translate(452.2744,241.8174)"><path
             d="m 0,0 c 1.974,-1.977 1.974,-5.178 0,-7.15 -1.976,-1.978 -5.177,-1.978 -7.153,0 -1.977,1.972 -1.977,5.173 0,7.15 1.97,1.974 5.173,1.979 7.153,0 z"
             style="fill:none;stroke:#ff6600;stroke-width:4.82399988;stroke-linecap:round;stroke-linejoin:round;stroke-miterlimit:10;stroke-dasharray:none;stroke-opacity:1"
             id="path52"
             inkscape:connector-curvature="0" /></g><g
           id="g54"
           transform="translate(448.6953,218.0898)"><path
             d="M 0,0 0.003,14.547"
             style="fill:#ffcc33;fill-opacity:1;fill-rule:nonzero;stroke:#ff6600;stroke-width:4.82399988;stroke-linecap:round;stroke-linejoin:round;stroke-miterlimit:10;stroke-dasharray:none;stroke-opacity:1"
             id="path56"
             inkscape:connector-curvature="0" /></g><g
           id="g58"
           transform="translate(400.1738,194.2178)"><path
             d="m 0,0 c 1.852,-1.847 1.847,-4.844 0,-6.696 -1.849,-1.847 -4.844,-1.847 -6.687,0 -1.852,1.852 -1.852,4.842 0,6.696 1.843,1.846 4.838,1.846 6.687,0"
             style="fill:#ffcc33;fill-opacity:1;fill-rule:nonzero;stroke:none"
             id="path60"
             inkscape:connector-curvature="0" /></g><g
           id="g62"
           transform="translate(431.2559,236.1357)"><path
             d="m 0,0 c 1.875,-1.869 1.875,-4.912 0,-6.786 -1.875,-1.88 -4.918,-1.88 -6.796,0 C -8.67,-4.912 -8.667,-1.874 -6.791,0 -4.918,1.883 -1.875,1.883 0,0"
             style="fill:#ffcc33;fill-opacity:1;fill-rule:nonzero;stroke:none"
             id="path64"
             inkscape:connector-curvature="0" /></g><g
           id="g66"
           transform="translate(431.2559,236.1357)"><path
             d="m 0,0 c 1.875,-1.869 1.875,-4.912 0,-6.786 -1.875,-1.88 -4.918,-1.88 -6.796,0 C -8.67,-4.912 -8.667,-1.874 -6.791,0 -4.918,1.883 -1.875,1.883 0,0 Z"
             style="fill:none;stroke:#ff6600;stroke-width:3.55800009;stroke-linecap:round;stroke-linejoin:round;stroke-miterlimit:10;stroke-dasharray:none;stroke-opacity:1"
             id="path68"
             inkscape:connector-curvature="0" /></g><g
           id="g70"
           transform="translate(415.9863,180.3174)"><path
             d="m 0,0 c 1.967,-1.966 1.965,-5.165 0,-7.136 -1.976,-1.972 -5.169,-1.972 -7.14,0 -1.97,1.971 -1.97,5.17 0,7.136 1.971,1.974 5.167,1.974 7.14,0"
             style="fill:#ffcc33;fill-opacity:1;fill-rule:nonzero;stroke:none"
             id="path72"
             inkscape:connector-curvature="0" /></g><g
           id="g74"
           transform="translate(379.4746,191.8848)"><path
             d="m 0,0 c 1.086,-1.082 1.086,-2.841 0,-3.924 -1.084,-1.083 -2.842,-1.083 -3.922,0 -1.087,1.083 -1.087,2.842 0,3.924 1.08,1.085 2.842,1.085 3.922,0"
             style="fill:#ffcc33;fill-opacity:1;fill-rule:nonzero;stroke:none"
             id="path76"
             inkscape:connector-curvature="0" /></g><g
           id="g78"
           transform="translate(399.9043,172.4307)"><path
             d="m 0,0 c 1.697,-1.694 1.694,-4.446 0,-6.143 -1.699,-1.7 -4.451,-1.7 -6.146,0 C -7.843,-4.446 -7.843,-1.694 -6.145,0 -4.451,1.696 -1.699,1.696 0,0"
             style="fill:#ffcc33;fill-opacity:1;fill-rule:nonzero;stroke:none"
             id="path80"
             inkscape:connector-curvature="0" /></g><g
           id="g82"
           transform="translate(427.2754,171.1064)"><path
             d="m 0,0 c 0.873,-0.875 0.873,-2.294 0,-3.164 -0.873,-0.877 -2.29,-0.877 -3.164,0 -0.873,0.87 -0.873,2.289 0,3.164 C -2.29,0.871 -0.873,0.871 0,0"
             style="fill:#ffcc33;fill-opacity:1;fill-rule:nonzero;stroke:none"
             id="path84"
             inkscape:connector-curvature="0" /></g><g
           id="g86"
           transform="translate(452.5186,189.5449)"><path
             d="m 0,0 c 0.873,-0.871 0.873,-2.29 0,-3.168 -0.873,-0.87 -2.292,-0.87 -3.166,0 C -4.04,-2.29 -4.04,-0.871 -3.163,0 -2.292,0.877 -0.873,0.877 0,0"
             style="fill:#ffcc33;fill-opacity:1;fill-rule:nonzero;stroke:none"
             id="path88"
             inkscape:connector-curvature="0" /></g><g
           id="g90"
           transform="translate(434.0918,195.5684)"><path
             d="m 0,0 c 2.599,-2.589 2.596,-6.806 0,-9.398 -2.6,-2.599 -6.807,-2.599 -9.402,0 -2.596,2.592 -2.594,6.804 0,9.398 C -6.81,2.596 -2.596,2.601 0,0"
             style="fill:#ffcc33;fill-opacity:1;fill-rule:nonzero;stroke:none"
             id="path92"
             inkscape:connector-curvature="0" /></g><g
           id="g94"
           transform="translate(385.7998,217.3535)"><path
             d="m 0,0 c 4.577,-4.58 4.572,-11.997 0,-16.569 -4.579,-4.578 -12,-4.578 -16.576,0 C -21.149,-11.997 -21.149,-4.58 -16.573,0 -12,4.57 -4.577,4.574 0,0"
             style="fill:#ffcc33;fill-opacity:1;fill-rule:nonzero;stroke:none"
             id="path96"
             inkscape:connector-curvature="0" /></g><g
           id="g98"
           transform="translate(385.7998,217.3535)"><path
             d="m 0,0 c 4.577,-4.58 4.572,-11.997 0,-16.569 -4.579,-4.578 -12,-4.578 -16.576,0 C -21.149,-11.997 -21.149,-4.58 -16.573,0 -12,4.57 -4.577,4.574 0,0 Z"
             style="fill:none;stroke:#ff6600;stroke-width:4.82399988;stroke-linecap:round;stroke-linejoin:round;stroke-miterlimit:10;stroke-dasharray:none;stroke-opacity:1"
             id="path100"
             inkscape:connector-curvature="0" /></g><g
           id="g102"
           transform="translate(382.1816,251.5479)"><path
             d="m 0,0 c 2.577,-2.582 2.577,-6.755 -0.006,-9.332 -2.575,-2.577 -6.748,-2.577 -9.326,0 -2.582,2.577 -2.582,6.758 -0.004,9.332 2.58,2.572 6.754,2.579 9.336,0"
             style="fill:#ffcc33;fill-opacity:1;fill-rule:nonzero;stroke:none"
             id="path104"
             inkscape:connector-curvature="0" /></g><g
           id="g106"
           transform="translate(382.1816,251.5479)"><path
             d="m 0,0 c 2.577,-2.582 2.577,-6.755 -0.006,-9.332 -2.575,-2.577 -6.748,-2.577 -9.326,0 -2.582,2.577 -2.582,6.758 -0.004,9.332 2.58,2.572 6.754,2.579 9.336,0 z"
             style="fill:none;stroke:#ff6600;stroke-width:4.82399988;stroke-linecap:round;stroke-linejoin:round;stroke-miterlimit:10;stroke-dasharray:none;stroke-opacity:1"
             id="path108"
             inkscape:connector-curvature="0" /></g><g
           id="g110"
           transform="translate(377.5098,220.5947)"><path
             d="M 0,0 0.006,18.979"
             style="fill:#ffcc33;fill-opacity:1;fill-rule:nonzero;stroke:#ff6600;stroke-width:4.82399988;stroke-linecap:round;stroke-linejoin:round;stroke-miterlimit:10;stroke-dasharray:none;stroke-opacity:1"
             id="path112"
             inkscape:connector-curvature="0" /></g><g
           id="g114"
           transform="translate(401.5,232.584)"><path
             d="m 0,0 c 2.578,-2.582 2.578,-6.756 -0.006,-9.331 -2.568,-2.577 -6.743,-2.577 -9.323,0 -2.579,2.575 -2.579,6.754 0,9.331 2.575,2.572 6.751,2.576 9.329,0"
             style="fill:#ffcc33;fill-opacity:1;fill-rule:nonzero;stroke:none"
             id="path116"
             inkscape:connector-curvature="0" /></g><g
           id="g118"
           transform="translate(401.5,232.584)"><path
             d="m 0,0 c 2.578,-2.582 2.578,-6.756 -0.006,-9.331 -2.568,-2.577 -6.743,-2.577 -9.323,0 -2.579,2.575 -2.579,6.754 0,9.331 2.575,2.572 6.751,2.576 9.329,0 z"
             style="fill:none;stroke:#ff6600;stroke-width:4.82399988;stroke-linecap:round;stroke-linejoin:round;stroke-miterlimit:10;stroke-dasharray:none;stroke-opacity:1"
             id="path120"
             inkscape:connector-curvature="0" /></g><g
           id="g122"
           transform="translate(396.832,201.6289)"><path
             d="M 0,0 0,18.983"
             style="fill:#ffcc33;fill-opacity:1;fill-rule:nonzero;stroke:#ff6600;stroke-width:4.82399988;stroke-linecap:round;stroke-linejoin:round;stroke-miterlimit:10;stroke-dasharray:none;stroke-opacity:1"
             id="path124"
             inkscape:connector-curvature="0" /></g><g
           id="g126"
           transform="translate(404.4023,254.2246)"><path
             d="m 0,0 c -4.232,4.23 -4.229,11.083 0,15.312 4.231,4.233 11.086,4.233 15.318,0 C 19.543,11.083 19.543,4.23 15.316,0 11.086,-4.225 4.227,-4.232 0,0"
             style="fill:#ffcc33;fill-opacity:1;fill-rule:nonzero;stroke:none"
             id="path128"
             inkscape:connector-curvature="0" /></g><g
           id="g130"
           transform="translate(404.4023,254.2246)"><path
             d="m 0,0 c -4.232,4.23 -4.229,11.083 0,15.312 4.231,4.233 11.086,4.233 15.318,0 C 19.543,11.083 19.543,4.23 15.316,0 11.086,-4.225 4.227,-4.232 0,0 Z"
             style="fill:none;stroke:#ff6600;stroke-width:4.45800018;stroke-linecap:round;stroke-linejoin:round;stroke-miterlimit:10;stroke-dasharray:none;stroke-opacity:1"
             id="path132"
             inkscape:connector-curvature="0" /></g><g
           id="g134"
           transform="translate(412.0645,250.3535)"><path
             d="M 0,0 -0.006,-62.393"
             style="fill:#ffcc33;fill-opacity:1;fill-rule:nonzero;stroke:#ff6600;stroke-width:4.82399988;stroke-linecap:round;stroke-linejoin:round;stroke-miterlimit:10;stroke-dasharray:none;stroke-opacity:1"
             id="path136"
             inkscape:connector-curvature="0" /></g><g
           id="g138"
           transform="translate(407.3906,201.7822)"><path
             d="m 0,0 c -2.576,2.582 -2.576,6.758 0.004,9.331 2.572,2.574 6.751,2.574 9.331,0 C 11.908,6.753 11.908,2.582 9.336,0 6.755,-2.571 2.581,-2.576 0,0"
             style="fill:#ffcc33;fill-opacity:1;fill-rule:nonzero;stroke:none"
             id="path140"
             inkscape:connector-curvature="0" /></g><g
           id="g142"
           transform="translate(407.3906,201.7822)"><path
             d="m 0,0 c -2.576,2.582 -2.576,6.758 0.004,9.331 2.572,2.574 6.751,2.574 9.331,0 C 11.908,6.753 11.908,2.582 9.336,0 6.755,-2.571 2.581,-2.576 0,0 Z"
             style="fill:none;stroke:#ff6600;stroke-width:4.82399988;stroke-linecap:round;stroke-linejoin:round;stroke-miterlimit:10;stroke-dasharray:none;stroke-opacity:1"
             id="path144"
             inkscape:connector-curvature="0" /></g></g></g><text
       transform="scale(0.99919454,-1.0008061)"
       style="font-variant:normal;font-weight:normal;font-stretch:normal;font-size:51.88341522px;font-family:'Leitura Headline Sans';-inkscape-font-specification:LeituraHeadline-Sans;writing-mode:lr-tb;fill:#1d1d1b;fill-opacity:1;fill-rule:nonzero;stroke:none"
       id="text146"
       x="47.759407"
       y="-7.0538373"><tspan
         x="47.759407 79.927094 112.97681 147.58307 165.58661 200.03719 233.96895 265.82538 298.20062 326.94403 359.31927 393.76987 428.22046 460.5957 495.20193 513.20551 548.17505 581.06915 612.40674 648.41382 679.23254 711.60785 746.57727 780.50903"
         y="-7.0538373"
         sodipodi:role="line"
         id="tspan148">24H POST-TRUTH HACKATHON</tspan></text>
</g></svg>