<?xml version="1.0" encoding="utf-8"?>
<!-- Generator: Adobe Illustrator 16.0.0, SVG Export Plug-In . SVG Version: 6.00 Build 0)  -->
<!DOCTYPE svg PUBLIC "-//W3C//DTD SVG 1.1//EN" "http://www.w3.org/Graphics/SVG/1.1/DTD/svg11.dtd">
<svg version="1.1" xmlns="http://www.w3.org/2000/svg" xmlns:xlink="http://www.w3.org/1999/xlink" x="0px" y="0px" width="180px"
	 height="180px" viewBox="0 0 180 180" enable-background="new 0 0 180 180" xml:space="preserve">
<g id="Layer_2">
	<rect x="384.104" y="-844.908" fill="#66FFFF" width="828" height="465"/>
	
		<line fill="none" stroke="#FF6600" stroke-width="3" stroke-miterlimit="10" x1="669.448" y1="-572.238" x2="920.615" y2="-572.238"/>
	<rect x="-648" y="-844.908" width="828" height="465"/>
	
		<line fill="none" stroke="#FF6600" stroke-width="3" stroke-miterlimit="10" x1="-362.655" y1="-572.238" x2="-111.488" y2="-572.238"/>
	<rect x="384.104" y="-276.663" fill="#66FFFF" width="905.955" height="188.99"/>
	<rect x="-725.955" y="-276.663" width="905.955" height="188.99"/>
</g>
<g id="Layer_1">
	<rect x="378.104" y="-5.928" fill="#66FFFF" width="192" height="190.667"/>
	<ellipse fill="#33CCCC" cx="798.104" cy="-633.296" rx="25.559" ry="2.558"/>
	<g>
		<g>
			<path fill="#FFFFCC" d="M815.817-633.986h-35.427c-0.8,0-1.449-0.651-1.449-1.45c0-0.8,0.649-1.449,1.449-1.449h6.313
				c0.688,0,1.28-0.484,1.42-1.158c0.139-0.674-0.217-1.351-0.849-1.623c-10.128-4.344-16.671-14.269-16.671-25.281
				c0-12.126,7.774-22.682,19.347-26.269c0.605-0.189,1.02-0.749,1.02-1.386v-26.505h2.423v21.618c0,0.8,0.647,1.449,1.449,1.449
				c0.799,0,1.448-0.649,1.448-1.449v-21.618h3.393v11.956c0,0.801,0.648,1.449,1.449,1.449s1.448-0.648,1.448-1.449v-13.405
				c0-0.8-0.647-1.449-1.448-1.449c-0.064,0-0.125,0.011-0.188,0.019c-0.061-0.008-0.121-0.019-0.185-0.019h-0.967h-9.306h-0.967
				h-0.723h-0.556c-0.865,0-1.57-0.704-1.57-1.57c0-0.866,0.705-1.57,1.57-1.57h19.72c0.866,0,1.57,0.704,1.57,1.57
				c0,0.866-0.704,1.57-1.57,1.57h-1.278c-0.802,0-1.449,0.649-1.449,1.449v27.954c0,0.637,0.414,1.196,1.02,1.386
				c11.573,3.587,19.349,14.143,19.349,26.269c0,11.013-6.545,20.938-16.673,25.281c-0.632,0.272-0.987,0.949-0.848,1.623
				c0.138,0.674,0.732,1.158,1.42,1.158h6.314c0.798,0,1.448,0.649,1.448,1.449C817.266-634.638,816.615-633.986,815.817-633.986z"
				/>
		</g>
		<path fill="#FF6600" d="M798.104-642.11c12.645,0,22.894-10.248,22.894-22.894h-45.788
			C775.209-652.358,785.46-642.11,798.104-642.11z"/>
		<g>
			
				<circle fill="#FFCC33" stroke="#FF6600" stroke-width="1.9323" stroke-linecap="round" stroke-linejoin="round" stroke-miterlimit="10" cx="813.171" cy="-663.861" r="3.598"/>
			
				<circle fill="#FFCC33" stroke="#FF6600" stroke-width="1.9323" stroke-linecap="round" stroke-linejoin="round" stroke-miterlimit="10" cx="813.171" cy="-675.474" r="2.026"/>
			
				<line fill="#FFCC33" stroke="#FF6600" stroke-width="1.9323" stroke-linecap="round" stroke-linejoin="round" stroke-miterlimit="10" x1="813.17" y1="-667.401" x2="813.171" y2="-673.229"/>
		</g>
		<circle fill="#FFCC33" cx="792.394" cy="-656.498" r="1.896"/>
		
			<path fill="#FFCC33" stroke="#FF6600" stroke-width="1.4255" stroke-linecap="round" stroke-linejoin="round" stroke-miterlimit="10" d="
			M806.185-674.631c0.751,0.749,0.751,1.968,0,2.719c-0.752,0.753-1.971,0.753-2.723,0c-0.751-0.751-0.75-1.968,0.002-2.719
			C804.214-675.385,805.433-675.385,806.185-674.631z"/>
		<circle fill="#FFCC33" cx="798.637" cy="-650.841" r="2.022"/>
		<circle fill="#FFCC33" cx="784.656" cy="-656.119" r="1.111"/>
		<circle fill="#FFCC33" cx="792.394" cy="-647.881" r="1.74"/>
		<circle fill="#FFCC33" cx="803.956" cy="-647.947" r="0.896"/>
		<circle fill="#FFCC33" cx="814.067" cy="-655.333" r="0.897"/>
		<circle fill="#FFCC33" cx="805.437" cy="-656.498" r="2.663"/>
		<g>
			
				<circle fill="#FFCC33" stroke="#FF6600" stroke-width="1.9323" stroke-linecap="round" stroke-linejoin="round" stroke-miterlimit="10" cx="784.655" cy="-663.788" r="4.694"/>
			
				<circle fill="#FFCC33" stroke="#FF6600" stroke-width="1.9323" stroke-linecap="round" stroke-linejoin="round" stroke-miterlimit="10" cx="784.656" cy="-678.936" r="2.643"/>
			
				<line fill="#FFCC33" stroke="#FF6600" stroke-width="1.9323" stroke-linecap="round" stroke-linejoin="round" stroke-miterlimit="10" x1="784.654" y1="-668.405" x2="784.656" y2="-676.008"/>
		</g>
		
			<path fill="#FFCC33" stroke="#FF6600" stroke-width="1.9323" stroke-linecap="round" stroke-linejoin="round" stroke-miterlimit="10" d="
			M794.265-673.208c1.032,1.034,1.032,2.706-0.003,3.738c-1.028,1.032-2.701,1.032-3.734,0s-1.033-2.706,0-3.738
			C791.559-674.238,793.231-674.24,794.265-673.208z"/>
		
			<line fill="#FFCC33" stroke="#FF6600" stroke-width="1.9323" stroke-linecap="round" stroke-linejoin="round" stroke-miterlimit="10" x1="792.395" y1="-660.808" x2="792.395" y2="-668.412"/>
		
			<circle fill="#FFCC33" stroke="#FF6600" stroke-width="1.7856" stroke-linecap="round" stroke-linejoin="round" stroke-miterlimit="10" cx="798.495" cy="-684.944" r="4.338"/>
		
			<line fill="#FFCC33" stroke="#FF6600" stroke-width="1.9323" stroke-linecap="round" stroke-linejoin="round" stroke-miterlimit="10" x1="798.496" y1="-680.326" x2="798.494" y2="-655.333"/>
		
			<circle fill="#FFCC33" stroke="#FF6600" stroke-width="1.9323" stroke-linecap="round" stroke-linejoin="round" stroke-miterlimit="10" cx="798.494" cy="-662.738" r="2.644"/>
	</g>
	<g>
		<ellipse fill="#33CCCC" cx="474.104" cy="148.297" rx="33.374" ry="4.429"/>
		<g>
			<g>
				<path fill="#FFFFCC" d="M497.232,146.308h-46.258c-1.045,0-1.893-0.851-1.893-1.894c0-1.045,0.848-1.893,1.893-1.893h8.244
					c0.896,0,1.672-0.633,1.854-1.513s-0.283-1.764-1.107-2.119c-13.225-5.672-21.77-18.632-21.77-33.012
					c0-15.833,10.152-29.616,25.262-34.3c0.791-0.248,1.332-0.979,1.332-1.81V35.159h3.164v28.229c0,1.044,0.846,1.892,1.893,1.892
					c1.043,0,1.891-0.848,1.891-1.892V35.159h4.43v15.611c0,1.046,0.848,1.893,1.893,1.893s1.891-0.847,1.891-1.893V33.269
					c0-1.046-0.846-1.893-1.891-1.893c-0.084,0-0.164,0.013-0.244,0.022c-0.08-0.01-0.158-0.022-0.242-0.022h-1.262h-12.152h-1.262
					h-0.943h-0.725c-1.131,0-2.051-0.921-2.051-2.051c0-1.131,0.92-2.051,2.051-2.051h25.748c1.131,0,2.051,0.92,2.051,2.051
					c0,1.13-0.92,2.051-2.051,2.051h-1.668c-1.047,0-1.893,0.847-1.893,1.893v36.5c0,0.831,0.539,1.562,1.33,1.81
					c15.113,4.684,25.266,18.467,25.266,34.3c0,14.38-8.547,27.34-21.771,33.012c-0.824,0.355-1.289,1.239-1.107,2.119
					s0.957,1.513,1.855,1.513h8.244c1.043,0,1.893,0.848,1.893,1.893C499.125,145.457,498.275,146.308,497.232,146.308z"/>
			</g>
			<path fill="#FF6600" d="M474.104,135.699c16.51,0,29.893-13.382,29.893-29.894h-59.787
				C444.209,122.317,457.594,135.699,474.104,135.699z"/>
			<g>
				
					<circle fill="#FFCC33" stroke="#FF6600" stroke-width="2.5231" stroke-linecap="round" stroke-linejoin="round" stroke-miterlimit="10" cx="493.777" cy="107.297" r="4.698"/>
				
					<circle fill="#FFCC33" stroke="#FF6600" stroke-width="2.5231" stroke-linecap="round" stroke-linejoin="round" stroke-miterlimit="10" cx="493.777" cy="92.134" r="2.645"/>
				
					<line fill="#FFCC33" stroke="#FF6600" stroke-width="2.5231" stroke-linecap="round" stroke-linejoin="round" stroke-miterlimit="10" x1="493.775" y1="102.675" x2="493.777" y2="95.066"/>
			</g>
			<path fill="#FFCC33" d="M468.396,115.161c0.969,0.966,0.965,2.534,0,3.503c-0.969,0.966-2.533,0.966-3.498,0
				c-0.969-0.969-0.969-2.533,0-3.503C465.863,114.196,467.428,114.196,468.396,115.161z"/>
			
				<path fill="#FFCC33" stroke="#FF6600" stroke-width="1.8613" stroke-linecap="round" stroke-linejoin="round" stroke-miterlimit="10" d="
				M484.654,93.235c0.98,0.978,0.98,2.569,0,3.55c-0.98,0.983-2.572,0.983-3.555,0c-0.98-0.98-0.979-2.569,0.002-3.55
				C482.082,92.251,483.674,92.251,484.654,93.235z"/>
			<path fill="#FFCC33" d="M476.668,122.433c1.027,1.027,1.027,2.7,0,3.732c-1.033,1.031-2.703,1.031-3.736,0
				c-1.029-1.032-1.029-2.705,0-3.732C473.965,121.399,475.635,121.399,476.668,122.433z"/>
			<circle fill="#FFCC33" cx="456.544" cy="117.408" r="1.451"/>
			<path fill="#FFCC33" d="M468.256,126.558c0.887,0.886,0.885,2.326,0,3.214c-0.891,0.889-2.33,0.889-3.215,0
				c-0.889-0.888-0.889-2.328,0-3.214C465.926,125.67,467.365,125.67,468.256,126.558z"/>
			<circle fill="#FFCC33" cx="481.745" cy="128.078" r="1.17"/>
			<circle fill="#FFCC33" cx="494.948" cy="118.434" r="1.171"/>
			<path fill="#FFCC33" d="M486.139,114.455c1.359,1.354,1.355,3.561,0,4.916c-1.359,1.359-3.561,1.359-4.92,0
				c-1.357-1.355-1.355-3.56,0-4.916C482.574,113.097,484.779,113.095,486.139,114.455z"/>
			<g>
				
					<path fill="#FFCC33" stroke="#FF6600" stroke-width="2.5231" stroke-linecap="round" stroke-linejoin="round" stroke-miterlimit="10" d="
					M460.879,103.061c2.393,2.395,2.391,6.274,0,8.666c-2.396,2.395-6.277,2.395-8.672,0c-2.393-2.392-2.393-6.271,0.002-8.666
					C454.602,100.669,458.484,100.667,460.879,103.061z"/>
				
					<path fill="#FFCC33" stroke="#FF6600" stroke-width="2.5231" stroke-linecap="round" stroke-linejoin="round" stroke-miterlimit="10" d="
					M458.984,85.174c1.348,1.35,1.348,3.533-0.002,4.881c-1.348,1.348-3.529,1.348-4.879,0s-1.35-3.534-0.002-4.881
					C455.451,83.828,457.635,83.824,458.984,85.174z"/>
				
					<line fill="#FFCC33" stroke="#FF6600" stroke-width="2.5231" stroke-linecap="round" stroke-linejoin="round" stroke-miterlimit="10" x1="456.541" y1="101.364" x2="456.545" y2="91.438"/>
			</g>
			
				<path fill="#FFCC33" stroke="#FF6600" stroke-width="2.5231" stroke-linecap="round" stroke-linejoin="round" stroke-miterlimit="10" d="
				M469.09,95.093c1.348,1.351,1.348,3.534-0.004,4.882c-1.342,1.348-3.527,1.348-4.875,0c-1.35-1.348-1.35-3.534,0-4.882
				C465.557,93.748,467.74,93.745,469.09,95.093z"/>
			
				<line fill="#FFCC33" stroke="#FF6600" stroke-width="2.5231" stroke-linecap="round" stroke-linejoin="round" stroke-miterlimit="10" x1="466.648" y1="111.285" x2="466.648" y2="101.355"/>
			
				<path fill="#FFCC33" stroke="#FF6600" stroke-width="2.3316" stroke-linecap="round" stroke-linejoin="round" stroke-miterlimit="10" d="
				M470.607,83.773c-2.213-2.213-2.211-5.797,0-8.01c2.215-2.213,5.799-2.213,8.014,0c2.209,2.213,2.209,5.797-0.002,8.01
				C476.406,85.983,472.818,85.987,470.607,83.773z"/>
			
				<line fill="#FFCC33" stroke="#FF6600" stroke-width="2.5231" stroke-linecap="round" stroke-linejoin="round" stroke-miterlimit="10" x1="474.615" y1="85.799" x2="474.613" y2="118.434"/>
			
				<path fill="#FFCC33" stroke="#FF6600" stroke-width="2.5231" stroke-linecap="round" stroke-linejoin="round" stroke-miterlimit="10" d="
				M472.172,111.205c-1.35-1.351-1.35-3.535,0.002-4.882c1.346-1.347,3.531-1.347,4.879,0c1.348,1.35,1.348,3.531,0.002,4.882
				C475.705,112.55,473.521,112.553,472.172,111.205z"/>
		</g>
	</g>
	<rect x="-6" y="-5.928" width="192" height="190.667"/>
	<g>
		<g>
			<g>
				<path fill="#FFFFCC" d="M113.129,146.308H66.871c-1.045,0-1.893-0.851-1.893-1.894c0-1.045,0.848-1.893,1.893-1.893h8.244
					c0.896,0,1.672-0.633,1.854-1.513s-0.283-1.764-1.107-2.119c-13.225-5.672-21.77-18.632-21.77-33.012
					c0-15.833,10.152-29.616,25.262-34.3c0.791-0.248,1.332-0.979,1.332-1.81V35.159h3.164v28.229c0,1.044,0.846,1.892,1.893,1.892
					c1.043,0,1.891-0.848,1.891-1.892V35.159h4.43v15.611c0,1.046,0.848,1.893,1.893,1.893s1.891-0.847,1.891-1.893V33.269
					c0-1.046-0.846-1.893-1.891-1.893c-0.084,0-0.164,0.013-0.244,0.022c-0.08-0.01-0.158-0.022-0.242-0.022h-1.262H80.055h-1.262
					H77.85h-0.725c-1.131,0-2.051-0.921-2.051-2.051c0-1.131,0.92-2.051,2.051-2.051h25.748c1.131,0,2.051,0.92,2.051,2.051
					c0,1.13-0.92,2.051-2.051,2.051h-1.668c-1.047,0-1.893,0.847-1.893,1.893v36.5c0,0.831,0.539,1.562,1.33,1.81
					c15.113,4.684,25.266,18.467,25.266,34.3c0,14.38-8.547,27.34-21.771,33.012c-0.824,0.355-1.289,1.239-1.107,2.119
					s0.957,1.513,1.855,1.513h8.244c1.043,0,1.893,0.848,1.893,1.893C115.021,145.457,114.172,146.308,113.129,146.308z"/>
			</g>
			<path fill="#FF6600" d="M90,135.699c16.51,0,29.893-13.382,29.893-29.894H60.105C60.105,122.317,73.49,135.699,90,135.699z"/>
			<g>
				
					<circle fill="#FFCC33" stroke="#FF6600" stroke-width="2.5231" stroke-linecap="round" stroke-linejoin="round" stroke-miterlimit="10" cx="109.674" cy="107.297" r="4.698"/>
				
					<circle fill="#FFCC33" stroke="#FF6600" stroke-width="2.5231" stroke-linecap="round" stroke-linejoin="round" stroke-miterlimit="10" cx="109.674" cy="92.134" r="2.645"/>
				
					<line fill="#FFCC33" stroke="#FF6600" stroke-width="2.5231" stroke-linecap="round" stroke-linejoin="round" stroke-miterlimit="10" x1="109.672" y1="102.675" x2="109.674" y2="95.066"/>
			</g>
			<path fill="#FFCC33" d="M84.293,115.161c0.969,0.966,0.965,2.534,0,3.503c-0.969,0.966-2.533,0.966-3.498,0
				c-0.969-0.969-0.969-2.533,0-3.503C81.76,114.196,83.324,114.196,84.293,115.161z"/>
			
				<path fill="#FFCC33" stroke="#FF6600" stroke-width="1.8613" stroke-linecap="round" stroke-linejoin="round" stroke-miterlimit="10" d="
				M100.551,93.235c0.98,0.978,0.98,2.569,0,3.55c-0.98,0.983-2.572,0.983-3.555,0c-0.98-0.98-0.979-2.569,0.002-3.55
				C97.979,92.251,99.57,92.251,100.551,93.235z"/>
			<path fill="#FFCC33" d="M92.564,122.433c1.027,1.027,1.027,2.7,0,3.732c-1.033,1.031-2.703,1.031-3.736,0
				c-1.029-1.032-1.029-2.705,0-3.732C89.861,121.399,91.531,121.399,92.564,122.433z"/>
			<circle fill="#FFCC33" cx="72.44" cy="117.408" r="1.451"/>
			<path fill="#FFCC33" d="M84.152,126.558c0.887,0.886,0.885,2.326,0,3.214c-0.891,0.889-2.33,0.889-3.215,0
				c-0.889-0.888-0.889-2.328,0-3.214C81.822,125.67,83.262,125.67,84.152,126.558z"/>
			<circle fill="#FFCC33" cx="97.642" cy="128.078" r="1.17"/>
			<circle fill="#FFCC33" cx="110.845" cy="118.434" r="1.171"/>
			<path fill="#FFCC33" d="M102.035,114.455c1.359,1.354,1.355,3.561,0,4.916c-1.359,1.359-3.561,1.359-4.92,0
				c-1.357-1.355-1.355-3.56,0-4.916C98.471,113.097,100.676,113.095,102.035,114.455z"/>
			<g>
				
					<path fill="#FFCC33" stroke="#FF6600" stroke-width="2.5231" stroke-linecap="round" stroke-linejoin="round" stroke-miterlimit="10" d="
					M76.775,103.061c2.393,2.395,2.391,6.274,0,8.666c-2.396,2.395-6.277,2.395-8.672,0c-2.393-2.392-2.393-6.271,0.002-8.666
					C70.498,100.669,74.381,100.667,76.775,103.061z"/>
				
					<path fill="#FFCC33" stroke="#FF6600" stroke-width="2.5231" stroke-linecap="round" stroke-linejoin="round" stroke-miterlimit="10" d="
					M74.881,85.174c1.348,1.35,1.348,3.533-0.002,4.881c-1.348,1.348-3.529,1.348-4.879,0s-1.35-3.534-0.002-4.881
					C71.348,83.828,73.531,83.824,74.881,85.174z"/>
				
					<line fill="#FFCC33" stroke="#FF6600" stroke-width="2.5231" stroke-linecap="round" stroke-linejoin="round" stroke-miterlimit="10" x1="72.438" y1="101.364" x2="72.441" y2="91.438"/>
			</g>
			
				<path fill="#FFCC33" stroke="#FF6600" stroke-width="2.5231" stroke-linecap="round" stroke-linejoin="round" stroke-miterlimit="10" d="
				M84.986,95.093c1.348,1.351,1.348,3.534-0.004,4.882c-1.342,1.348-3.527,1.348-4.875,0c-1.35-1.348-1.35-3.534,0-4.882
				C81.453,93.748,83.637,93.745,84.986,95.093z"/>
			
				<line fill="#FFCC33" stroke="#FF6600" stroke-width="2.5231" stroke-linecap="round" stroke-linejoin="round" stroke-miterlimit="10" x1="82.545" y1="111.285" x2="82.545" y2="101.355"/>
			
				<path fill="#FFCC33" stroke="#FF6600" stroke-width="2.3316" stroke-linecap="round" stroke-linejoin="round" stroke-miterlimit="10" d="
				M86.504,83.773c-2.213-2.213-2.211-5.797,0-8.01c2.215-2.213,5.799-2.213,8.014,0c2.209,2.213,2.209,5.797-0.002,8.01
				C92.303,85.983,88.715,85.987,86.504,83.773z"/>
			
				<line fill="#FFCC33" stroke="#FF6600" stroke-width="2.5231" stroke-linecap="round" stroke-linejoin="round" stroke-miterlimit="10" x1="90.512" y1="85.799" x2="90.51" y2="118.434"/>
			
				<path fill="#FFCC33" stroke="#FF6600" stroke-width="2.5231" stroke-linecap="round" stroke-linejoin="round" stroke-miterlimit="10" d="
				M88.068,111.205c-1.35-1.351-1.35-3.535,0.002-4.882c1.346-1.347,3.531-1.347,4.879,0c1.348,1.35,1.348,3.531,0.002,4.882
				C91.602,112.55,89.418,112.553,88.068,111.205z"/>
		</g>
	</g>
	<text transform="matrix(1 0 0 1 713.1113 -540.9473)"><tspan x="0" y="0" font-family="'HeroicCondensed-Heavy'" font-size="23.667">24h post-truth</tspan><tspan x="27.513" y="28.124" font-family="'HeroicCondensed-Heavy'" font-size="23.667">hackathoN</tspan></text>
	<text transform="matrix(1 0 0 1 671.7041 -585.1348)" fill="#FF6600" font-family="'HeroicCondensed-Heavy'" font-size="34.7865">Data as remedy </text>
	<g>
		<g>
			<path fill="#FFFFCC" d="M-216.286-633.986h-35.427c-0.8,0-1.449-0.651-1.449-1.45c0-0.8,0.649-1.449,1.449-1.449h6.313
				c0.688,0,1.28-0.484,1.42-1.158c0.139-0.674-0.217-1.351-0.849-1.623c-10.128-4.344-16.671-14.269-16.671-25.281
				c0-12.126,7.774-22.682,19.347-26.269c0.605-0.189,1.02-0.749,1.02-1.386v-26.505h2.423v21.618c0,0.8,0.647,1.449,1.449,1.449
				c0.799,0,1.448-0.649,1.448-1.449v-21.618h3.393v11.956c0,0.801,0.648,1.449,1.449,1.449s1.448-0.648,1.448-1.449v-13.405
				c0-0.8-0.647-1.449-1.448-1.449c-0.064,0-0.125,0.011-0.188,0.019c-0.061-0.008-0.121-0.019-0.185-0.019h-0.967h-9.306h-0.967
				h-0.723h-0.556c-0.865,0-1.57-0.704-1.57-1.57c0-0.866,0.705-1.57,1.57-1.57h19.72c0.866,0,1.57,0.704,1.57,1.57
				c0,0.866-0.704,1.57-1.57,1.57h-1.278c-0.802,0-1.449,0.649-1.449,1.449v27.954c0,0.637,0.414,1.196,1.02,1.386
				c11.573,3.587,19.349,14.143,19.349,26.269c0,11.013-6.545,20.938-16.673,25.281c-0.632,0.272-0.987,0.949-0.848,1.623
				c0.138,0.674,0.732,1.158,1.42,1.158h6.314c0.798,0,1.448,0.649,1.448,1.449C-214.838-634.638-215.488-633.986-216.286-633.986z"
				/>
		</g>
		<path fill="#FF6600" d="M-234-642.11c12.645,0,22.894-10.248,22.894-22.894h-45.788C-256.895-652.358-246.644-642.11-234-642.11z"
			/>
		<g>
			
				<circle fill="#FFCC33" stroke="#FF6600" stroke-width="1.9323" stroke-linecap="round" stroke-linejoin="round" stroke-miterlimit="10" cx="-218.933" cy="-663.861" r="3.598"/>
			
				<circle fill="#FFCC33" stroke="#FF6600" stroke-width="1.9323" stroke-linecap="round" stroke-linejoin="round" stroke-miterlimit="10" cx="-218.933" cy="-675.474" r="2.026"/>
			
				<line fill="#FFCC33" stroke="#FF6600" stroke-width="1.9323" stroke-linecap="round" stroke-linejoin="round" stroke-miterlimit="10" x1="-218.934" y1="-667.401" x2="-218.933" y2="-673.229"/>
		</g>
		<circle fill="#FFCC33" cx="-239.71" cy="-656.498" r="1.896"/>
		
			<path fill="#FFCC33" stroke="#FF6600" stroke-width="1.4255" stroke-linecap="round" stroke-linejoin="round" stroke-miterlimit="10" d="
			M-225.919-674.631c0.751,0.749,0.751,1.968,0,2.719c-0.752,0.753-1.971,0.753-2.723,0c-0.751-0.751-0.75-1.968,0.002-2.719
			C-227.89-675.385-226.671-675.385-225.919-674.631z"/>
		<circle fill="#FFCC33" cx="-233.466" cy="-650.841" r="2.022"/>
		<circle fill="#FFCC33" cx="-247.448" cy="-656.119" r="1.111"/>
		<circle fill="#FFCC33" cx="-239.709" cy="-647.881" r="1.74"/>
		<circle fill="#FFCC33" cx="-228.147" cy="-647.947" r="0.896"/>
		<circle fill="#FFCC33" cx="-218.036" cy="-655.333" r="0.897"/>
		<circle fill="#FFCC33" cx="-226.667" cy="-656.498" r="2.663"/>
		<g>
			
				<circle fill="#FFCC33" stroke="#FF6600" stroke-width="1.9323" stroke-linecap="round" stroke-linejoin="round" stroke-miterlimit="10" cx="-247.448" cy="-663.788" r="4.694"/>
			
				<circle fill="#FFCC33" stroke="#FF6600" stroke-width="1.9323" stroke-linecap="round" stroke-linejoin="round" stroke-miterlimit="10" cx="-247.447" cy="-678.936" r="2.643"/>
			
				<line fill="#FFCC33" stroke="#FF6600" stroke-width="1.9323" stroke-linecap="round" stroke-linejoin="round" stroke-miterlimit="10" x1="-247.449" y1="-668.405" x2="-247.447" y2="-676.008"/>
		</g>
		
			<path fill="#FFCC33" stroke="#FF6600" stroke-width="1.9323" stroke-linecap="round" stroke-linejoin="round" stroke-miterlimit="10" d="
			M-237.839-673.208c1.032,1.034,1.032,2.706-0.003,3.738c-1.028,1.032-2.701,1.032-3.734,0s-1.033-2.706,0-3.738
			C-240.545-674.238-238.872-674.24-237.839-673.208z"/>
		
			<line fill="#FFCC33" stroke="#FF6600" stroke-width="1.9323" stroke-linecap="round" stroke-linejoin="round" stroke-miterlimit="10" x1="-239.709" y1="-660.808" x2="-239.709" y2="-668.412"/>
		
			<circle fill="#FFCC33" stroke="#FF6600" stroke-width="1.7856" stroke-linecap="round" stroke-linejoin="round" stroke-miterlimit="10" cx="-233.608" cy="-684.944" r="4.338"/>
		
			<line fill="#FFCC33" stroke="#FF6600" stroke-width="1.9323" stroke-linecap="round" stroke-linejoin="round" stroke-miterlimit="10" x1="-233.607" y1="-680.326" x2="-233.609" y2="-655.333"/>
		
			<circle fill="#FFCC33" stroke="#FF6600" stroke-width="1.9323" stroke-linecap="round" stroke-linejoin="round" stroke-miterlimit="10" cx="-233.61" cy="-662.738" r="2.644"/>
	</g>
	<text transform="matrix(1 0 0 1 -318.9922 -540.9473)"><tspan x="0" y="0" fill="#FFFFFF" font-family="'HeroicCondensed-Heavy'" font-size="23.667">24h post-truth</tspan><tspan x="27.513" y="28.124" fill="#FFFFFF" font-family="'HeroicCondensed-Heavy'" font-size="23.667">hackathoN</tspan></text>
	<text transform="matrix(1 0 0 1 -360.3994 -585.1348)" fill="#FF6600" font-family="'HeroicCondensed-Heavy'" font-size="34.7865">Data as remedy </text>
	<ellipse fill="#33CCCC" cx="469.418" cy="-139.3" rx="25.559" ry="3.392"/>
	<g>
		<g>
			<path fill="#FFFFCC" d="M487.132-140.823h-35.427c-0.8,0-1.449-0.651-1.449-1.45c0-0.8,0.649-1.449,1.449-1.449h6.313
				c0.688,0,1.28-0.484,1.42-1.158c0.139-0.674-0.217-1.351-0.849-1.623c-10.128-4.344-16.671-14.269-16.671-25.281
				c0-12.126,7.774-22.682,19.347-26.269c0.605-0.189,1.02-0.749,1.02-1.386v-26.505h2.423v21.618c0,0.8,0.647,1.449,1.449,1.449
				c0.799,0,1.448-0.649,1.448-1.449v-21.618h3.393v11.956c0,0.801,0.648,1.45,1.449,1.45s1.448-0.649,1.448-1.45v-13.405
				c0-0.8-0.647-1.449-1.448-1.449c-0.064,0-0.125,0.012-0.188,0.02c-0.061-0.008-0.121-0.02-0.185-0.02h-0.967h-9.306h-0.967
				h-0.723h-0.556c-0.865,0-1.57-0.703-1.57-1.569s0.705-1.57,1.57-1.57h19.72c0.866,0,1.57,0.704,1.57,1.57
				s-0.704,1.569-1.57,1.569h-1.278c-0.802,0-1.449,0.649-1.449,1.449v27.954c0,0.637,0.414,1.196,1.02,1.386
				c11.573,3.587,19.349,14.143,19.349,26.269c0,11.013-6.545,20.938-16.673,25.281c-0.632,0.272-0.987,0.949-0.848,1.623
				c0.138,0.674,0.732,1.158,1.42,1.158h6.314c0.798,0,1.448,0.649,1.448,1.449C488.58-141.475,487.93-140.823,487.132-140.823z"/>
		</g>
		<path fill="#FF6600" d="M469.418-148.947c12.645,0,22.894-10.248,22.894-22.894h-45.788
			C446.523-159.195,456.774-148.947,469.418-148.947z"/>
		<g>
			
				<circle fill="#FFCC33" stroke="#FF6600" stroke-width="1.9323" stroke-linecap="round" stroke-linejoin="round" stroke-miterlimit="10" cx="484.485" cy="-170.698" r="3.598"/>
			
				<circle fill="#FFCC33" stroke="#FF6600" stroke-width="1.9323" stroke-linecap="round" stroke-linejoin="round" stroke-miterlimit="10" cx="484.485" cy="-182.311" r="2.026"/>
			
				<line fill="#FFCC33" stroke="#FF6600" stroke-width="1.9323" stroke-linecap="round" stroke-linejoin="round" stroke-miterlimit="10" x1="484.484" y1="-174.238" x2="484.485" y2="-180.065"/>
		</g>
		<circle fill="#FFCC33" cx="463.708" cy="-163.334" r="1.896"/>
		
			<path fill="#FFCC33" stroke="#FF6600" stroke-width="1.4255" stroke-linecap="round" stroke-linejoin="round" stroke-miterlimit="10" d="
			M477.499-181.468c0.751,0.749,0.751,1.968,0,2.719c-0.752,0.753-1.971,0.753-2.723,0c-0.751-0.751-0.75-1.968,0.002-2.719
			C475.528-182.222,476.747-182.222,477.499-181.468z"/>
		<circle fill="#FFCC33" cx="469.952" cy="-157.678" r="2.022"/>
		<circle fill="#FFCC33" cx="455.97" cy="-162.956" r="1.111"/>
		<circle fill="#FFCC33" cx="463.708" cy="-154.718" r="1.74"/>
		<circle fill="#FFCC33" cx="475.271" cy="-154.784" r="0.896"/>
		<circle fill="#FFCC33" cx="485.382" cy="-162.169" r="0.897"/>
		<circle fill="#FFCC33" cx="476.751" cy="-163.334" r="2.663"/>
		<g>
			
				<circle fill="#FFCC33" stroke="#FF6600" stroke-width="1.9323" stroke-linecap="round" stroke-linejoin="round" stroke-miterlimit="10" cx="455.97" cy="-170.625" r="4.694"/>
			
				<circle fill="#FFCC33" stroke="#FF6600" stroke-width="1.9323" stroke-linecap="round" stroke-linejoin="round" stroke-miterlimit="10" cx="455.971" cy="-185.772" r="2.643"/>
			
				<line fill="#FFCC33" stroke="#FF6600" stroke-width="1.9323" stroke-linecap="round" stroke-linejoin="round" stroke-miterlimit="10" x1="455.969" y1="-175.242" x2="455.971" y2="-182.845"/>
		</g>
		
			<path fill="#FFCC33" stroke="#FF6600" stroke-width="1.9323" stroke-linecap="round" stroke-linejoin="round" stroke-miterlimit="10" d="
			M465.579-180.045c1.032,1.034,1.032,2.706-0.003,3.738c-1.028,1.032-2.701,1.032-3.734,0s-1.033-2.706,0-3.738
			C462.873-181.075,464.546-181.077,465.579-180.045z"/>
		
			<line fill="#FFCC33" stroke="#FF6600" stroke-width="1.9323" stroke-linecap="round" stroke-linejoin="round" stroke-miterlimit="10" x1="463.709" y1="-167.645" x2="463.709" y2="-175.249"/>
		
			<circle fill="#FFCC33" stroke="#FF6600" stroke-width="1.7856" stroke-linecap="round" stroke-linejoin="round" stroke-miterlimit="10" cx="469.81" cy="-191.781" r="4.338"/>
		
			<line fill="#FFCC33" stroke="#FF6600" stroke-width="1.9323" stroke-linecap="round" stroke-linejoin="round" stroke-miterlimit="10" x1="469.811" y1="-187.163" x2="469.809" y2="-162.17"/>
		
			<circle fill="#FFCC33" stroke="#FF6600" stroke-width="1.9323" stroke-linecap="round" stroke-linejoin="round" stroke-miterlimit="10" cx="469.808" cy="-169.575" r="2.644"/>
	</g>
	<text transform="matrix(1 0 0 1 528.2568 -166.9316)"><tspan x="0" y="0" fill="#FF6600" font-family="'HeroicCondensed-Heavy'" font-size="34.7865">Data as remedy</tspan><tspan x="254.669" y="0" fill="#FF6600" font-family="'MyriadPro-Regular'" font-size="34.7865">: </tspan><tspan x="283.158" y="0" font-family="'HeroicCondensed-Heavy'" font-size="34.7865">24h post-truth hackathon</tspan><tspan x="722.192" y="0" fill="#FF6600" font-family="'HeroicCondensed-Heavy'" font-size="34.7865"> </tspan></text>
	<g>
		<g>
			<path fill="#FFFFCC" d="M-622.927-140.823h-35.427c-0.8,0-1.449-0.651-1.449-1.45c0-0.8,0.649-1.449,1.449-1.449h6.313
				c0.688,0,1.28-0.484,1.42-1.158c0.139-0.674-0.217-1.351-0.849-1.623c-10.128-4.344-16.671-14.269-16.671-25.281
				c0-12.126,7.774-22.682,19.347-26.269c0.605-0.189,1.02-0.749,1.02-1.386v-26.505h2.423v21.618c0,0.8,0.647,1.449,1.449,1.449
				c0.799,0,1.448-0.649,1.448-1.449v-21.618h3.393v11.956c0,0.801,0.648,1.45,1.449,1.45s1.448-0.649,1.448-1.45v-13.405
				c0-0.8-0.647-1.449-1.448-1.449c-0.064,0-0.125,0.012-0.188,0.02c-0.061-0.008-0.121-0.02-0.185-0.02h-0.967h-9.306h-0.967
				h-0.723h-0.556c-0.865,0-1.57-0.703-1.57-1.569s0.705-1.57,1.57-1.57h19.72c0.866,0,1.57,0.704,1.57,1.57
				s-0.704,1.569-1.57,1.569h-1.278c-0.802,0-1.449,0.649-1.449,1.449v27.954c0,0.637,0.414,1.196,1.02,1.386
				c11.573,3.587,19.349,14.143,19.349,26.269c0,11.013-6.545,20.938-16.673,25.281c-0.632,0.272-0.987,0.949-0.848,1.623
				c0.138,0.674,0.732,1.158,1.42,1.158h6.314c0.798,0,1.448,0.649,1.448,1.449C-621.479-141.475-622.129-140.823-622.927-140.823z"
				/>
		</g>
		<path fill="#FF6600" d="M-640.641-148.947c12.645,0,22.894-10.248,22.894-22.894h-45.788
			C-663.535-159.195-653.284-148.947-640.641-148.947z"/>
		<g>
			
				<circle fill="#FFCC33" stroke="#FF6600" stroke-width="1.9323" stroke-linecap="round" stroke-linejoin="round" stroke-miterlimit="10" cx="-625.573" cy="-170.698" r="3.598"/>
			
				<circle fill="#FFCC33" stroke="#FF6600" stroke-width="1.9323" stroke-linecap="round" stroke-linejoin="round" stroke-miterlimit="10" cx="-625.573" cy="-182.311" r="2.026"/>
			
				<line fill="#FFCC33" stroke="#FF6600" stroke-width="1.9323" stroke-linecap="round" stroke-linejoin="round" stroke-miterlimit="10" x1="-625.574" y1="-174.238" x2="-625.573" y2="-180.065"/>
		</g>
		<circle fill="#FFCC33" cx="-646.351" cy="-163.334" r="1.896"/>
		
			<path fill="#FFCC33" stroke="#FF6600" stroke-width="1.4255" stroke-linecap="round" stroke-linejoin="round" stroke-miterlimit="10" d="
			M-632.56-181.468c0.751,0.749,0.751,1.968,0,2.719c-0.752,0.753-1.971,0.753-2.723,0c-0.751-0.751-0.75-1.968,0.002-2.719
			C-634.53-182.222-633.312-182.222-632.56-181.468z"/>
		<circle fill="#FFCC33" cx="-640.107" cy="-157.678" r="2.022"/>
		<circle fill="#FFCC33" cx="-654.088" cy="-162.956" r="1.111"/>
		<circle fill="#FFCC33" cx="-646.35" cy="-154.718" r="1.74"/>
		<circle fill="#FFCC33" cx="-634.788" cy="-154.784" r="0.896"/>
		<circle fill="#FFCC33" cx="-624.677" cy="-162.169" r="0.897"/>
		<circle fill="#FFCC33" cx="-633.307" cy="-163.334" r="2.663"/>
		<g>
			
				<circle fill="#FFCC33" stroke="#FF6600" stroke-width="1.9323" stroke-linecap="round" stroke-linejoin="round" stroke-miterlimit="10" cx="-654.089" cy="-170.625" r="4.694"/>
			
				<circle fill="#FFCC33" stroke="#FF6600" stroke-width="1.9323" stroke-linecap="round" stroke-linejoin="round" stroke-miterlimit="10" cx="-654.088" cy="-185.772" r="2.643"/>
			
				<line fill="#FFCC33" stroke="#FF6600" stroke-width="1.9323" stroke-linecap="round" stroke-linejoin="round" stroke-miterlimit="10" x1="-654.09" y1="-175.242" x2="-654.088" y2="-182.845"/>
		</g>
		
			<path fill="#FFCC33" stroke="#FF6600" stroke-width="1.9323" stroke-linecap="round" stroke-linejoin="round" stroke-miterlimit="10" d="
			M-644.479-180.045c1.032,1.034,1.032,2.706-0.003,3.738c-1.028,1.032-2.701,1.032-3.734,0s-1.033-2.706,0-3.738
			C-647.186-181.075-645.513-181.077-644.479-180.045z"/>
		
			<line fill="#FFCC33" stroke="#FF6600" stroke-width="1.9323" stroke-linecap="round" stroke-linejoin="round" stroke-miterlimit="10" x1="-646.35" y1="-167.645" x2="-646.35" y2="-175.249"/>
		
			<circle fill="#FFCC33" stroke="#FF6600" stroke-width="1.7856" stroke-linecap="round" stroke-linejoin="round" stroke-miterlimit="10" cx="-640.249" cy="-191.781" r="4.338"/>
		
			<line fill="#FFCC33" stroke="#FF6600" stroke-width="1.9323" stroke-linecap="round" stroke-linejoin="round" stroke-miterlimit="10" x1="-640.248" y1="-187.163" x2="-640.25" y2="-162.17"/>
		
			<circle fill="#FFCC33" stroke="#FF6600" stroke-width="1.9323" stroke-linecap="round" stroke-linejoin="round" stroke-miterlimit="10" cx="-640.25" cy="-169.575" r="2.644"/>
	</g>
	<text transform="matrix(1 0 0 1 -581.8018 -166.9316)"><tspan x="0" y="0" fill="#FF6600" font-family="'HeroicCondensed-Heavy'" font-size="34.7865">Data as remedy</tspan><tspan x="254.669" y="0" fill="#FF6600" font-family="'MyriadPro-Regular'" font-size="34.7865">: </tspan><tspan x="283.158" y="0" fill="#FFFFFF" font-family="'HeroicCondensed-Heavy'" font-size="34.7865">24h post-truth hackathon </tspan></text>
</g>
</svg>
