<?xml version="1.0" encoding="UTF-8" standalone="no"?>
<!-- Created with Inkscape (http://www.inkscape.org/) -->

<svg
   xmlns:dc="http://purl.org/dc/elements/1.1/"
   xmlns:cc="http://creativecommons.org/ns#"
   xmlns:rdf="http://www.w3.org/1999/02/22-rdf-syntax-ns#"
   xmlns:svg="http://www.w3.org/2000/svg"
   xmlns="http://www.w3.org/2000/svg"
   xmlns:sodipodi="http://sodipodi.sourceforge.net/DTD/sodipodi-0.dtd"
   xmlns:inkscape="http://www.inkscape.org/namespaces/inkscape"
   id="svg2"
   version="1.1"
   inkscape:version="0.91 r13725"
   xml:space="preserve"
   width="321.15979"
   height="265.68896"
   viewBox="0 0 321.15979 265.68896"
   sodipodi:docname="trasnp-stream.svg"
   inkscape:export-filename="/home/tramm/Kood/hack24/dump/transp7.png"
   inkscape:export-xdpi="364.29999"
   inkscape:export-ydpi="364.29999"><metadata
     id="metadata8"><rdf:RDF><cc:Work
         rdf:about=""><dc:format>image/svg+xml</dc:format><dc:type
           rdf:resource="http://purl.org/dc/dcmitype/StillImage" /><dc:title></dc:title></cc:Work></rdf:RDF></metadata><defs
     id="defs6"><clipPath
       clipPathUnits="userSpaceOnUse"
       id="clipPath22"><path
         d="M 0,465 828,465 828,0 0,0 0,465 Z"
         id="path24"
         inkscape:connector-curvature="0" /></clipPath></defs><sodipodi:namedview
     pagecolor="#323232"
     bordercolor="#666666"
     borderopacity="1"
     objecttolerance="10"
     gridtolerance="10"
     guidetolerance="10"
     inkscape:pageopacity="0"
     inkscape:pageshadow="2"
     inkscape:window-width="1280"
     inkscape:window-height="779"
     id="namedview4"
     showgrid="true"
     inkscape:zoom="1.4995169"
     inkscape:cx="172.69978"
     inkscape:cy="88.829974"
     inkscape:window-x="0"
     inkscape:window-y="0"
     inkscape:window-maximized="1"
     inkscape:current-layer="g10"
     fit-margin-top="0"
     fit-margin-left="0"
     fit-margin-right="0"
     fit-margin-bottom="0"><inkscape:grid
       type="xygrid"
       id="grid4320"
       units="px"
       empspacing="150"
       originx="-438.84546"
       originy="-181.53399" /></sodipodi:namedview><g
     id="g10"
     inkscape:groupmode="layer"
     inkscape:label="Hackathon"
     transform="matrix(1.25,0,0,-1.25,-438.84546,447.22295)"><g
       id="g14"
       transform="translate(351.07637,204.87136)"><path
         d="M 0,0 251.167,0"
         style="fill:none;stroke:#ff6600;stroke-width:3;stroke-linecap:butt;stroke-linejoin:miter;stroke-miterlimit:10;stroke-dasharray:none;stroke-opacity:1"
         id="path16"
         inkscape:connector-curvature="0" /></g><g
       id="g18"
       transform="translate(65.731673,12.541257)"><g
         id="g20"
         clip-path="url(#clipPath22)"><g
           id="g26"
           transform="translate(439.5596,253.3877)"><path
             d="m 0,0 c 0,-1.411 -11.443,-2.558 -25.56,-2.558 -14.115,0 -25.558,1.147 -25.558,2.558 0,1.411 11.443,2.558 25.558,2.558 C -11.443,2.558 0,1.411 0,0"
             style="fill:#33cccc;fill-opacity:1;fill-rule:nonzero;stroke:none"
             id="path28"
             inkscape:connector-curvature="0" /></g><g
           id="g30"
           transform="translate(431.7139,254.0781)"><path
             d="m 0,0 -35.427,0 c -0.8,0 -1.449,0.651 -1.449,1.45 0,0.8 0.649,1.449 1.449,1.449 l 6.314,0 c 0.687,0 1.28,0.485 1.42,1.159 0.138,0.673 -0.217,1.35 -0.849,1.623 -10.128,4.343 -16.671,14.268 -16.671,25.281 0,12.126 7.775,22.682 19.347,26.268 0.605,0.19 1.019,0.749 1.019,1.386 l 0,26.505 2.423,0 0,-21.618 c 0,-0.8 0.648,-1.449 1.449,-1.449 0.799,0 1.449,0.649 1.449,1.449 l 0,21.618 3.392,0 0,-11.956 c 0,-0.801 0.649,-1.449 1.449,-1.449 0.801,0 1.449,0.648 1.449,1.449 l 0,13.405 c 0,0.8 -0.648,1.449 -1.449,1.449 -0.064,0 -0.125,-0.011 -0.187,-0.019 -0.061,0.008 -0.121,0.019 -0.185,0.019 l -0.966,0 -9.306,0 -0.967,0 -0.723,0 -0.555,0 c -0.865,0 -1.571,0.704 -1.571,1.57 0,0.866 0.706,1.57 1.571,1.57 l 19.72,0 c 0.866,0 1.57,-0.704 1.57,-1.57 0,-0.866 -0.704,-1.57 -1.57,-1.57 l -1.279,0 c -0.802,0 -1.449,-0.649 -1.449,-1.449 l 0,-27.954 c 0,-0.637 0.414,-1.196 1.019,-1.386 C 2.011,53.644 9.786,43.088 9.786,30.962 9.786,19.949 3.241,10.024 -6.887,5.681 -7.519,5.408 -7.874,4.731 -7.734,4.058 -7.597,3.384 -7.002,2.899 -6.314,2.899 L 0,2.899 C 0.798,2.899 1.448,2.25 1.448,1.45 1.448,0.651 0.798,0 0,0"
             style="fill:#ffffcc;fill-opacity:1;fill-rule:nonzero;stroke:none"
             id="path32"
             inkscape:connector-curvature="0" /></g><g
           id="g34"
           transform="translate(414,262.2021)"><path
             d="m 0,0 c 12.645,0 22.894,10.248 22.894,22.894 l -45.789,0 C -22.895,10.248 -12.644,0 0,0"
             style="fill:#ff6600;fill-opacity:1;fill-rule:nonzero;stroke:none"
             id="path36"
             inkscape:connector-curvature="0" /></g><g
           id="g38"
           transform="translate(431.6123,286.4971)"><path
             d="m 0,0 c 1.405,-1.403 1.403,-3.685 0,-5.088 -1.407,-1.405 -3.685,-1.405 -5.09,0 -1.404,1.403 -1.404,3.685 0,5.088 1.405,1.406 3.684,1.406 5.09,0"
             style="fill:#ffcc33;fill-opacity:1;fill-rule:nonzero;stroke:none"
             id="path40"
             inkscape:connector-curvature="0" /></g><g
           id="g42"
           transform="translate(431.6123,286.4971)"><path
             d="m 0,0 c 1.405,-1.403 1.403,-3.685 0,-5.088 -1.407,-1.405 -3.685,-1.405 -5.09,0 -1.404,1.403 -1.404,3.685 0,5.088 1.405,1.406 3.684,1.406 5.09,0 z"
             style="fill:none;stroke:#ff6600;stroke-width:1.93200004;stroke-linecap:round;stroke-linejoin:round;stroke-miterlimit:10;stroke-dasharray:none;stroke-opacity:1"
             id="path44"
             inkscape:connector-curvature="0" /></g><g
           id="g46"
           transform="translate(430.5,296.998)"><path
             d="m 0,0 c 0.791,-0.791 0.791,-2.074 0,-2.864 -0.791,-0.792 -2.073,-0.792 -2.865,0 -0.792,0.79 -0.792,2.073 0,2.864 0.79,0.791 2.072,0.793 2.865,0"
             style="fill:#ffcc33;fill-opacity:1;fill-rule:nonzero;stroke:none"
             id="path48"
             inkscape:connector-curvature="0" /></g><g
           id="g50"
           transform="translate(430.5,296.998)"><path
             d="m 0,0 c 0.791,-0.791 0.791,-2.074 0,-2.864 -0.791,-0.792 -2.073,-0.792 -2.865,0 -0.792,0.79 -0.792,2.073 0,2.864 0.79,0.791 2.072,0.793 2.865,0 z"
             style="fill:none;stroke:#ff6600;stroke-width:1.93200004;stroke-linecap:round;stroke-linejoin:round;stroke-miterlimit:10;stroke-dasharray:none;stroke-opacity:1"
             id="path52"
             inkscape:connector-curvature="0" /></g><g
           id="g54"
           transform="translate(429.0664,287.4932)"><path
             d="M 0,0 0.001,5.827"
             style="fill:#ffcc33;fill-opacity:1;fill-rule:nonzero;stroke:#ff6600;stroke-width:1.93200004;stroke-linecap:round;stroke-linejoin:round;stroke-miterlimit:10;stroke-dasharray:none;stroke-opacity:1"
             id="path56"
             inkscape:connector-curvature="0" /></g><g
           id="g58"
           transform="translate(409.6299,277.9307)"><path
             d="m 0,0 c 0.741,-0.739 0.739,-1.94 0,-2.683 -0.741,-0.739 -1.94,-0.739 -2.68,0 -0.741,0.743 -0.741,1.941 0,2.683 0.74,0.739 1.939,0.739 2.68,0"
             style="fill:#ffcc33;fill-opacity:1;fill-rule:nonzero;stroke:none"
             id="path60"
             inkscape:connector-curvature="0" /></g><g
           id="g62"
           transform="translate(422.0811,294.7227)"><path
             d="m 0,0 c 0.751,-0.749 0.751,-1.968 0,-2.719 -0.752,-0.753 -1.971,-0.753 -2.723,0 -0.751,0.751 -0.75,1.968 0.002,2.719 0.75,0.754 1.969,0.754 2.721,0"
             style="fill:#ffcc33;fill-opacity:1;fill-rule:nonzero;stroke:none"
             id="path64"
             inkscape:connector-curvature="0" /></g><g
           id="g66"
           transform="translate(422.0811,294.7227)"><path
             d="m 0,0 c 0.751,-0.749 0.751,-1.968 0,-2.719 -0.752,-0.753 -1.971,-0.753 -2.723,0 -0.751,0.751 -0.75,1.968 0.002,2.719 0.75,0.754 1.969,0.754 2.721,0 z"
             style="fill:none;stroke:#ff6600;stroke-width:1.42499995;stroke-linecap:round;stroke-linejoin:round;stroke-miterlimit:10;stroke-dasharray:none;stroke-opacity:1"
             id="path68"
             inkscape:connector-curvature="0" /></g><g
           id="g70"
           transform="translate(415.9639,272.3623)"><path
             d="m 0,0 c 0.788,-0.787 0.787,-2.068 0,-2.858 -0.791,-0.79 -2.07,-0.79 -2.86,0 -0.789,0.79 -0.789,2.071 0,2.858 0.79,0.791 2.07,0.791 2.86,0"
             style="fill:#ffcc33;fill-opacity:1;fill-rule:nonzero;stroke:none"
             id="path72"
             inkscape:connector-curvature="0" /></g><g
           id="g74"
           transform="translate(401.3379,276.9961)"><path
             d="m 0,0 c 0.435,-0.434 0.435,-1.138 0,-1.571 -0.435,-0.435 -1.139,-0.435 -1.571,0 -0.436,0.433 -0.436,1.137 0,1.571 0.432,0.435 1.138,0.435 1.571,0"
             style="fill:#ffcc33;fill-opacity:1;fill-rule:nonzero;stroke:none"
             id="path76"
             inkscape:connector-curvature="0" /></g><g
           id="g78"
           transform="translate(409.5215,269.2031)"><path
             d="m 0,0 c 0.68,-0.679 0.679,-1.781 0,-2.461 -0.681,-0.681 -1.783,-0.681 -2.462,0 -0.68,0.68 -0.68,1.782 0.001,2.461 0.678,0.68 1.78,0.68 2.461,0"
             style="fill:#ffcc33;fill-opacity:1;fill-rule:nonzero;stroke:none"
             id="path80"
             inkscape:connector-curvature="0" /></g><g
           id="g82"
           transform="translate(420.4863,268.6729)"><path
             d="m 0,0 c 0.35,-0.351 0.35,-0.919 0,-1.268 -0.35,-0.351 -0.918,-0.351 -1.268,0 -0.349,0.349 -0.349,0.917 0,1.268 0.35,0.349 0.918,0.349 1.268,0"
             style="fill:#ffcc33;fill-opacity:1;fill-rule:nonzero;stroke:none"
             id="path84"
             inkscape:connector-curvature="0" /></g><g
           id="g86"
           transform="translate(430.5977,276.0586)"><path
             d="m 0,0 c 0.351,-0.349 0.351,-0.917 0,-1.269 -0.35,-0.348 -0.918,-0.348 -1.268,0 -0.35,0.352 -0.35,0.92 0.001,1.269 C -0.918,0.352 -0.35,0.352 0,0"
             style="fill:#ffcc33;fill-opacity:1;fill-rule:nonzero;stroke:none"
             id="path88"
             inkscape:connector-curvature="0" /></g><g
           id="g90"
           transform="translate(423.2168,278.4717)"><path
             d="m 0,0 c 1.041,-1.037 1.039,-2.727 0,-3.765 -1.041,-1.041 -2.727,-1.041 -3.767,0 -1.04,1.038 -1.039,2.726 0,3.765 C -2.729,1.04 -1.04,1.042 0,0"
             style="fill:#ffcc33;fill-opacity:1;fill-rule:nonzero;stroke:none"
             id="path92"
             inkscape:connector-curvature="0" /></g><g
           id="g94"
           transform="translate(403.8721,287.1982)"><path
             d="m 0,0 c 1.833,-1.834 1.831,-4.806 0,-6.637 -1.835,-1.834 -4.808,-1.834 -6.641,0 C -8.473,-4.806 -8.473,-1.834 -6.64,0 -4.808,1.831 -1.834,1.833 0,0"
             style="fill:#ffcc33;fill-opacity:1;fill-rule:nonzero;stroke:none"
             id="path96"
             inkscape:connector-curvature="0" /></g><g
           id="g98"
           transform="translate(403.8721,287.1982)"><path
             d="m 0,0 c 1.833,-1.834 1.831,-4.806 0,-6.637 -1.835,-1.834 -4.808,-1.834 -6.641,0 C -8.473,-4.806 -8.473,-1.834 -6.64,0 -4.808,1.831 -1.834,1.833 0,0 Z"
             style="fill:none;stroke:#ff6600;stroke-width:1.93200004;stroke-linecap:round;stroke-linejoin:round;stroke-miterlimit:10;stroke-dasharray:none;stroke-opacity:1"
             id="path100"
             inkscape:connector-curvature="0" /></g><g
           id="g102"
           transform="translate(402.4219,300.8965)"><path
             d="m 0,0 c 1.032,-1.034 1.032,-2.706 -0.002,-3.738 -1.031,-1.033 -2.703,-1.033 -3.736,0 C -4.771,-2.706 -4.771,-1.031 -3.739,0 -2.706,1.03 -1.034,1.033 0,0"
             style="fill:#ffcc33;fill-opacity:1;fill-rule:nonzero;stroke:none"
             id="path104"
             inkscape:connector-curvature="0" /></g><g
           id="g106"
           transform="translate(402.4219,300.8965)"><path
             d="m 0,0 c 1.032,-1.034 1.032,-2.706 -0.002,-3.738 -1.031,-1.033 -2.703,-1.033 -3.736,0 C -4.771,-2.706 -4.771,-1.031 -3.739,0 -2.706,1.03 -1.034,1.033 0,0 Z"
             style="fill:none;stroke:#ff6600;stroke-width:1.93200004;stroke-linecap:round;stroke-linejoin:round;stroke-miterlimit:10;stroke-dasharray:none;stroke-opacity:1"
             id="path108"
             inkscape:connector-curvature="0" /></g><g
           id="g110"
           transform="translate(400.5508,288.4971)"><path
             d="M 0,0 0.002,7.603"
             style="fill:#ffcc33;fill-opacity:1;fill-rule:nonzero;stroke:#ff6600;stroke-width:1.93200004;stroke-linecap:round;stroke-linejoin:round;stroke-miterlimit:10;stroke-dasharray:none;stroke-opacity:1"
             id="path112"
             inkscape:connector-curvature="0" /></g><g
           id="g114"
           transform="translate(410.1611,293.2998)"><path
             d="m 0,0 c 1.032,-1.034 1.032,-2.706 -0.003,-3.738 -1.028,-1.033 -2.701,-1.033 -3.734,0 -1.034,1.032 -1.034,2.706 0,3.738 1.031,1.03 2.704,1.032 3.737,0"
             style="fill:#ffcc33;fill-opacity:1;fill-rule:nonzero;stroke:none"
             id="path116"
             inkscape:connector-curvature="0" /></g><g
           id="g118"
           transform="translate(410.1611,293.2998)"><path
             d="m 0,0 c 1.032,-1.034 1.032,-2.706 -0.003,-3.738 -1.028,-1.033 -2.701,-1.033 -3.734,0 -1.034,1.032 -1.034,2.706 0,3.738 1.031,1.03 2.704,1.032 3.737,0 z"
             style="fill:none;stroke:#ff6600;stroke-width:1.93200004;stroke-linecap:round;stroke-linejoin:round;stroke-miterlimit:10;stroke-dasharray:none;stroke-opacity:1"
             id="path120"
             inkscape:connector-curvature="0" /></g><g
           id="g122"
           transform="translate(408.291,280.8994)"><path
             d="M 0,0 0,7.604"
             style="fill:#ffcc33;fill-opacity:1;fill-rule:nonzero;stroke:#ff6600;stroke-width:1.93200004;stroke-linecap:round;stroke-linejoin:round;stroke-miterlimit:10;stroke-dasharray:none;stroke-opacity:1"
             id="path124"
             inkscape:connector-curvature="0" /></g><g
           id="g126"
           transform="translate(411.3232,301.9687)"><path
             d="m 0,0 c -1.695,1.694 -1.693,4.439 0,6.134 1.695,1.695 4.441,1.695 6.137,0 C 7.829,4.439 7.829,1.694 6.136,0 4.441,-1.692 1.693,-1.695 0,0"
             style="fill:#ffcc33;fill-opacity:1;fill-rule:nonzero;stroke:none"
             id="path128"
             inkscape:connector-curvature="0" /></g><g
           id="g130"
           transform="translate(411.3232,301.9687)"><path
             d="m 0,0 c -1.695,1.694 -1.693,4.439 0,6.134 1.695,1.695 4.441,1.695 6.137,0 C 7.829,4.439 7.829,1.694 6.136,0 4.441,-1.692 1.693,-1.695 0,0 Z"
             style="fill:none;stroke:#ff6600;stroke-width:1.78600001;stroke-linecap:round;stroke-linejoin:round;stroke-miterlimit:10;stroke-dasharray:none;stroke-opacity:1"
             id="path132"
             inkscape:connector-curvature="0" /></g><g
           id="g134"
           transform="translate(414.3926,300.418)"><path
             d="M 0,0 -0.002,-24.993"
             style="fill:#ffcc33;fill-opacity:1;fill-rule:nonzero;stroke:#ff6600;stroke-width:1.93200004;stroke-linecap:round;stroke-linejoin:round;stroke-miterlimit:10;stroke-dasharray:none;stroke-opacity:1"
             id="path136"
             inkscape:connector-curvature="0" /></g><g
           id="g138"
           transform="translate(412.5205,280.9609)"><path
             d="m 0,0 c -1.032,1.034 -1.032,2.707 0.002,3.738 1.03,1.032 2.704,1.032 3.737,0 C 4.771,2.705 4.771,1.034 3.74,0 2.706,-1.03 1.034,-1.032 0,0"
             style="fill:#ffcc33;fill-opacity:1;fill-rule:nonzero;stroke:none"
             id="path140"
             inkscape:connector-curvature="0" /></g><g
           id="g142"
           transform="translate(412.5205,280.9609)"><path
             d="m 0,0 c -1.032,1.034 -1.032,2.707 0.002,3.738 1.03,1.032 2.704,1.032 3.737,0 C 4.771,2.705 4.771,1.034 3.74,0 2.706,-1.03 1.034,-1.032 0,0 Z"
             style="fill:none;stroke:#ff6600;stroke-width:1.93200004;stroke-linecap:round;stroke-linejoin:round;stroke-miterlimit:10;stroke-dasharray:none;stroke-opacity:1"
             id="path144"
             inkscape:connector-curvature="0" /></g></g></g><text
       transform="scale(1,-1)"
       style="font-variant:normal;font-weight:900;font-stretch:condensed;font-size:23.66699982px;font-family:'Heroic Condensed';-inkscape-font-specification:HeroicCondensed-Heavy;writing-mode:lr-tb;fill:#ffffff;fill-opacity:1;fill-rule:nonzero;stroke:none"
       id="text146"
       x="482.49344"
       y="-175.08926"><tspan
         sodipodi:role="line"
         id="tspan150"
         x="484.09344"
         y="-175.08926"
         style="text-align:center;letter-spacing:3.20000005px;text-anchor:middle">STREAM STARTING</tspan><tspan
         sodipodi:role="line"
         x="484.09344"
         y="-145.50551"
         style="text-align:center;letter-spacing:3.20000005px;text-anchor:middle"
         id="tspan4207">16:00 EET</tspan></text>
<text
       transform="scale(1,-1)"
       style="font-variant:normal;font-weight:900;font-stretch:condensed;font-size:34.78649902px;font-family:'Heroic Condensed';-inkscape-font-specification:HeroicCondensed-Heavy;writing-mode:lr-tb;fill:#ff6600;fill-opacity:1;fill-rule:nonzero;stroke:none"
       id="text152"
       x="353.33228"
       y="-217.76677"><tspan
         x="353.33228 373.12579 391.91046 409.1994 427.98407 440.8551 459.63977 478.73761 491.60858 510.98468 528.4823 552.93719 570.43481 590.22833 608.00421"
         y="-217.76677"
         sodipodi:role="line"
         id="tspan154">DATA AS REMEDY </tspan></text>
</g></svg>